<svg xmlns="http://www.w3.org/2000/svg" viewBox="0 0 136.48 332.85"><defs><style>.cls-1{fill:#eddfb3;}.cls-2{fill:none;}</style></defs><g id="Layer_2" data-name="Layer 2"><g id="Layer_1-2" data-name="Layer 1"><path class="cls-1" d="M113.93,148.93c-4.07,18.14-9.36,35.82-18.87,52-2.16,3.68-4.79,5.32-9,5.42-17.33.42-34.65,1-52,1.7a4.29,4.29,0,0,1-4.23-2.13c-4.45-6.47-6.39-13.87-7.94-21.36C18,165.92,17.36,147,17.61,128c.22-17,4.31-33,9.86-48.87C31,69.14,35.39,59.63,42.7,51.7c11-12,24.46-14.26,39.59-10.13,13.32,3.64,21.06,13.26,26.51,25.1,7,15.31,8.38,31.7,8.7,48.27A142.34,142.34,0,0,1,113.93,148.93Z"/><path class="cls-1" d="M32.69,223.61l58.93-5c7.25,19.31,12,38.81,3.28,59.1C89.38,290.47,77.73,298.08,64.64,297c-10.74-.87-18.2-7.23-23.64-16-7.43-12.07-9.27-25.56-9.28-39.38C31.72,235.7,32.34,229.8,32.69,223.61Z"/><rect class="cls-2" width="136.48" height="332.85" transform="translate(136.48 332.85) rotate(-180)"/></g></g></svg>