<svg xmlns="http://www.w3.org/2000/svg" viewBox="0 0 136.48 332.85"><defs><style>.cls-1{fill:#eddfb3;}.cls-2{fill:none;}</style></defs><g id="Layer_2" data-name="Layer 2"><g id="Layer_1-2" data-name="Layer 1"><path class="cls-1" d="M22.55,148.93c4.07,18.14,9.36,35.82,18.87,52,2.16,3.68,4.8,5.32,9,5.42,17.32.42,34.64,1,52,1.7a4.31,4.31,0,0,0,4.23-2.13c4.44-6.47,6.38-13.87,7.93-21.36,3.87-18.66,4.53-37.55,4.28-56.54-.22-17-4.31-33-9.86-48.87-3.51-10-7.92-19.54-15.22-27.47-11-12-24.47-14.26-39.6-10.13-13.32,3.64-21,13.26-26.5,25.1C20.64,82,19.3,98.37,19,114.94A142.34,142.34,0,0,0,22.55,148.93Z"/><path class="cls-1" d="M103.79,223.61l-58.92-5c-7.26,19.31-12,38.81-3.29,59.1C47.1,290.47,58.76,298.08,71.84,297c10.75-.87,18.2-7.23,23.64-16,7.44-12.07,9.27-25.56,9.28-39.38C104.76,235.7,104.14,229.8,103.79,223.61Z"/><rect class="cls-2" width="136.48" height="332.85"/></g></g></svg>